<?xml version="1.0" standalone="no"?>
<!DOCTYPE svg PUBLIC "-//W3C//DTD SVG 20010904//EN"
 "http://www.w3.org/TR/2001/REC-SVG-20010904/DTD/svg10.dtd">
<svg version="1.0" xmlns="http://www.w3.org/2000/svg"
 width="360.000000pt" height="360.000000pt" viewBox="0 0 360.000000 360.000000"
 preserveAspectRatio="xMidYMid meet">

<g transform="translate(0.000000,360.000000) scale(0.100000,-0.100000)"
fill="#000000" stroke="none">
<path d="M1850 2866 c-67 -15 -209 -62 -223 -75 -4 -4 21 -2 55 5 138 29 285
11 416 -52 157 -75 294 -253 339 -441 l17 -73 133 0 c73 0 133 3 133 6 0 3 -9
42 -21 86 -66 259 -230 445 -460 523 -70 23 -104 29 -204 31 -75 2 -144 -2
-185 -10z"/>
<path d="M1708 2730 c-200 -34 -431 -180 -578 -365 -46 -58 -50 -68 -39 -83
13 -15 12 -16 -3 -4 -12 10 -18 10 -23 1 -4 -6 -1 -15 6 -21 11 -7 10 -8 -5
-6 -10 2 -21 -1 -22 -7 -3 -6 42 -11 119 -13 l122 -2 30 41 c17 22 63 72 103
110 276 263 649 315 866 120 l30 -26 -33 42 c-131 171 -347 251 -573 213z
m-564 -387 c4 -10 4 -14 0 -10 -4 4 -16 -1 -28 -10 -20 -18 -20 -18 0 9 23 33
20 32 28 11z"/>
<path d="M1063 2150 c-18 -10 -38 -29 -46 -42 -16 -25 -197 -623 -197 -650 0
-4 47 -8 103 -8 l104 0 52 198 c70 262 62 246 95 181 127 -246 193 -363 213
-376 34 -23 94 -27 135 -10 44 19 58 40 177 268 49 95 92 167 94 159 3 -8 26
-98 52 -200 67 -259 45 -230 170 -230 77 0 105 3 105 13 0 6 -42 155 -94 330
-99 339 -108 358 -174 377 -78 21 -116 -7 -192 -142 -29 -51 -65 -113 -80
-138 -15 -25 -46 -80 -68 -122 l-41 -77 -107 192 c-135 242 -156 272 -195 286
-45 16 -69 14 -106 -9z"/>
<path d="M2240 2149 c-47 -4 -99 -12 -115 -17 -30 -9 -115 -50 -115 -55 0 -1
15 -55 33 -120 l33 -117 31 43 c52 75 77 82 321 85 l213 3 47 60 c51 66 63 87
41 73 -11 -6 -12 -5 -2 8 7 8 10 18 6 21 -3 4 -1 7 6 7 8 0 11 -7 7 -17 -7
-17 -6 -17 10 -1 10 10 16 19 13 21 -8 8 -447 13 -529 6z"/>
<path d="M2155 1566 l32 -111 54 -7 c30 -3 133 -6 230 -7 l175 -1 67 88 c37
49 67 92 67 96 0 4 -125 6 -278 4 l-278 -3 -50 26 -51 26 32 -111z"/>
<path d="M912 1369 c-25 -9 -25 -16 4 -86 9 -20 19 -31 26 -27 7 4 8 3 4 -4
-20 -33 114 -184 212 -239 93 -52 178 -74 292 -74 102 0 209 22 290 60 25 12
37 19 28 17 -201 -56 -389 -8 -529 135 -52 53 -129 181 -129 215 0 11 -20 14
-87 13 -49 -1 -98 -5 -111 -10z"/>
<path d="M2221 1335 c-178 -248 -428 -417 -683 -461 -186 -32 -362 9 -499 118
l-53 41 35 -48 c82 -115 248 -220 399 -251 100 -21 266 -14 375 16 185 50 373
169 533 334 88 92 212 259 212 285 0 7 -50 11 -143 11 l-144 0 -32 -45z"/>
</g>
</svg>
